<?xml version="1.0" encoding="UTF-8"?>
<svg xmlns="http://www.w3.org/2000/svg" xmlns:xlink="http://www.w3.org/1999/xlink" width="18px" height="13px" viewBox="0 0 18 13" version="1.1">
<g id="surface1">
<path style=" stroke:none;fill-rule:nonzero;fill:rgb(15.686275%,15.686275%,15.686275%);fill-opacity:1;" d="M 17.730469 2.035156 C 17.523438 1.238281 16.910156 0.613281 16.136719 0.398438 C 14.71875 0 9.050781 0 9.050781 0 C 9.050781 0 3.386719 0 1.96875 0.382812 C 1.207031 0.597656 0.582031 1.238281 0.371094 2.035156 C 0 3.488281 0 6.5 0 6.5 C 0 6.5 0 9.527344 0.371094 10.964844 C 0.582031 11.761719 1.191406 12.386719 1.96875 12.601562 C 3.398438 13 9.050781 13 9.050781 13 C 9.050781 13 14.71875 13 16.136719 12.617188 C 16.910156 12.402344 17.523438 11.777344 17.730469 10.980469 C 18.105469 9.527344 18.105469 6.515625 18.105469 6.515625 C 18.105469 6.515625 18.121094 3.488281 17.730469 2.035156 Z M 17.730469 2.035156 "/>
<path style=" stroke:none;fill-rule:nonzero;fill:rgb(100%,100%,100%);fill-opacity:1;" d="M 11.960938 6.5 L 7.246094 3.714844 L 7.246094 9.285156 Z M 11.960938 6.5 "/>
</g>
</svg>
